<?xml version="1.0" encoding="UTF-8" standalone="no"?>
<svg
   xmlns="http://www.w3.org/2000/svg"
   version="1.1"
   xml:space="preserve"
   width="580.98669"
   height="580.98669"
   viewBox="0 0 580.98669 580.98669">
   <style type="text/css">
   	.st0{fill:#A51C30;}
   	.st1{fill:#C0C0C0;}
   	.st2{fill:#FFFFFF;}
   </style>
   <g transform="matrix(1.3333333,0,0,-1.3333333,0,580.98667)">
     <g transform="scale(0.1)">
       <path class="st0" d="M 4357.44,0 H 0 V 4357.43 H 4357.44 V 0"/>
       <path class="st1" d="M 3878.88,478.559 H 478.539 V 3878.91 H 3878.88 V 478.559"/>
       <path class="st2" d="m 1088.74,2556.6 c 35.67,-6.5 87.61,-8.13 142.7,-8.13 301.69,0 465.48,168.67 465.48,463.83 1.63,257.9 -144.33,421.71 -442.74,421.71 -72.98,0 -128.13,-6.53 -165.44,-14.59 z m -141.111,966.61 c 85.981,12.95 188.131,22.69 300.041,22.69 202.75,0 347.09,-47.04 442.77,-136.24 97.34,-89.2 154.08,-215.7 154.08,-392.47 0,-178.41 -55.17,-324.36 -157.3,-424.92 -102.19,-102.16 -270.89,-157.32 -483.33,-157.32 -100.52,0 -184.89,4.87 -256.261,12.99 v 1075.27"/>
       <path class="st2" d="m 3113,2915.34 -107.05,314.62 c -24.27,71.38 -40.51,136.24 -56.76,199.52 h -3.21 c -16.24,-64.89 -34.04,-131.4 -55.21,-197.88 l -107,-316.26 z m -358.41,-110.29 -113.51,-343.82 h -145.96 l 371.34,1093.12 h 170.27 l 373.05,-1093.12 h -150.82 l -116.72,343.82 h -387.65"/>
       <path class="st2" d="m 1100.89,993.211 c 63.28,-38.922 155.72,-71.359 252.99,-71.359 144.41,0 228.75,76.218 228.75,186.528 0,102.19 -58.41,160.55 -206.05,217.31 -178.36,63.22 -288.63,155.68 -288.63,309.76 0,170.29 141.08,296.79 353.52,296.79 111.92,0 193.01,-25.92 241.65,-53.5 l -38.87,-115.17 c -35.71,19.45 -108.68,51.94 -207.58,51.94 -149.25,0 -206.05,-89.2 -206.05,-163.86 0,-102.14 66.5,-152.43 217.39,-210.85 184.83,-71.29 278.93,-160.48 278.93,-321.09 0,-168.679 -124.86,-314.64 -382.76,-314.64 -105.45,0 -220.6,30.84 -279,69.75 l 35.71,118.391"/>
       <path class="st2" d="m 2687.28,1923.67 v -457.39 h 528.68 v 457.39 h 142.76 V 830.551 H 3215.96 V 1343.04 H 2687.28 V 830.551 H 2546.19 V 1923.67 h 141.09"/>
       <path d="M 725.016,2178.71 H 3632.39" style="fill:none;stroke:#ffffff;stroke-width:20;stroke-linecap:butt;stroke-linejoin:miter;stroke-miterlimit:10;stroke-dasharray:none;stroke-opacity:1"/>
     </g>
   </g>
 </svg>
