<svg height="12" viewbox="0 0 15 12" width="15" xmlns="http://www.w3.org/2000/svg">
  <defs>
    <path d="M1333.22 1552.85a2.62 2.62 0 0 0 1.31-1.67 6.2 6.2 0 0 1-1.97.74 3.3 3.3 0 0 0-2.25-.92c-1.6 0-3 1.38-3 3.05 0 .27 0 .46.1.64a8.67 8.67 0 0 1-6.38-3.14 2.8 2.8 0 0 0-.37 1.57c0 1.02.56 1.94 1.4 2.5-.47 0-.93-.19-1.4-.37a3 3 0 0 0 2.43 2.95c-.28.1-.56.1-.84.1-.19 0-.38 0-.56-.1a3.03 3.03 0 0 0 2.9 2.12 6.02 6.02 0 0 1-3.84 1.3h-.75c1.4.83 3 1.38 4.69 1.38a8.6 8.6 0 0 0 8.72-8.58v-.37a5.4 5.4 0 0 0 1.59-1.67c-.56.28-1.13.37-1.78.47z" id="1es3a"></path>
  </defs>
  <g>
    <g transform="translate(-1320 -1551)">
      <use fill="silver" xlink:href="#1es3a"></use>
    </g>
  </g>
</svg>
